<mxfile host="app.diagrams.net" modified="2024-01-26T10:39:59.352Z" agent="Mozilla/5.0 (Windows NT 10.0; Win64; x64) AppleWebKit/537.36 (KHTML, like Gecko) Chrome/120.0.0.0 Safari/537.36" etag="fFOlhRwxlPUY41gzID3o" version="23.0.2" type="device">
  <diagram id="sTGYVmaRrngQ_SS4oHKb" name="페이지-1">
    <mxGraphModel dx="1798" dy="866" grid="1" gridSize="10" guides="1" tooltips="1" connect="1" arrows="1" fold="1" page="1" pageScale="1" pageWidth="827" pageHeight="1169" math="0" shadow="0">
      <root>
        <mxCell id="0" />
        <mxCell id="1" parent="0" />
        <mxCell id="DMGwknJtA3tuaSFfa8lZ-161" value="" style="whiteSpace=wrap;html=1;fillColor=none;rounded=1;" parent="1" vertex="1">
          <mxGeometry x="270" y="60" width="140" height="150" as="geometry" />
        </mxCell>
        <mxCell id="DMGwknJtA3tuaSFfa8lZ-89" value="" style="whiteSpace=wrap;html=1;fillColor=none;rounded=1;" parent="1" vertex="1">
          <mxGeometry x="531" y="260" width="320" height="380" as="geometry" />
        </mxCell>
        <mxCell id="DMGwknJtA3tuaSFfa8lZ-32" value="사파" style="rounded=1;whiteSpace=wrap;html=1;arcSize=50;" parent="1" vertex="1">
          <mxGeometry x="651" y="240" width="80" height="40" as="geometry" />
        </mxCell>
        <mxCell id="DMGwknJtA3tuaSFfa8lZ-136" style="edgeStyle=orthogonalEdgeStyle;rounded=0;orthogonalLoop=1;jettySize=auto;html=1;exitX=0.75;exitY=1;exitDx=0;exitDy=0;entryX=0.75;entryY=0;entryDx=0;entryDy=0;strokeColor=#EA6B66;" parent="1" source="DMGwknJtA3tuaSFfa8lZ-40" target="DMGwknJtA3tuaSFfa8lZ-42" edge="1">
          <mxGeometry relative="1" as="geometry" />
        </mxCell>
        <mxCell id="DMGwknJtA3tuaSFfa8lZ-40" value="마교" style="whiteSpace=wrap;html=1;" parent="1" vertex="1">
          <mxGeometry x="571" y="300" width="80" height="40" as="geometry" />
        </mxCell>
        <mxCell id="DMGwknJtA3tuaSFfa8lZ-126" style="edgeStyle=orthogonalEdgeStyle;rounded=0;orthogonalLoop=1;jettySize=auto;html=1;exitX=0.5;exitY=1;exitDx=0;exitDy=0;entryX=0.75;entryY=0;entryDx=0;entryDy=0;startArrow=classic;startFill=1;strokeColor=#990000;" parent="1" source="DMGwknJtA3tuaSFfa8lZ-41" target="DMGwknJtA3tuaSFfa8lZ-31" edge="1">
          <mxGeometry relative="1" as="geometry" />
        </mxCell>
        <mxCell id="DMGwknJtA3tuaSFfa8lZ-135" style="edgeStyle=orthogonalEdgeStyle;rounded=0;orthogonalLoop=1;jettySize=auto;html=1;exitX=0;exitY=0.75;exitDx=0;exitDy=0;entryX=1;entryY=0.25;entryDx=0;entryDy=0;strokeColor=#EA6B66;" parent="1" source="DMGwknJtA3tuaSFfa8lZ-41" target="DMGwknJtA3tuaSFfa8lZ-42" edge="1">
          <mxGeometry relative="1" as="geometry" />
        </mxCell>
        <mxCell id="DMGwknJtA3tuaSFfa8lZ-41" value="혈교" style="whiteSpace=wrap;html=1;" parent="1" vertex="1">
          <mxGeometry x="731" y="300" width="80" height="40" as="geometry" />
        </mxCell>
        <mxCell id="DMGwknJtA3tuaSFfa8lZ-152" style="edgeStyle=orthogonalEdgeStyle;rounded=0;orthogonalLoop=1;jettySize=auto;html=1;exitX=0.5;exitY=1;exitDx=0;exitDy=0;entryX=1;entryY=0.5;entryDx=0;entryDy=0;strokeColor=#7EA6E0;" parent="1" source="DMGwknJtA3tuaSFfa8lZ-42" target="DMGwknJtA3tuaSFfa8lZ-56" edge="1">
          <mxGeometry relative="1" as="geometry" />
        </mxCell>
        <mxCell id="DMGwknJtA3tuaSFfa8lZ-42" value="하오문" style="whiteSpace=wrap;html=1;" parent="1" vertex="1">
          <mxGeometry x="571" y="560" width="80" height="40" as="geometry" />
        </mxCell>
        <mxCell id="DMGwknJtA3tuaSFfa8lZ-146" style="edgeStyle=orthogonalEdgeStyle;rounded=0;orthogonalLoop=1;jettySize=auto;html=1;exitX=0.25;exitY=1;exitDx=0;exitDy=0;entryX=0;entryY=0;entryDx=0;entryDy=0;strokeColor=#7EA6E0;" parent="1" source="DMGwknJtA3tuaSFfa8lZ-43" target="DMGwknJtA3tuaSFfa8lZ-31" edge="1">
          <mxGeometry relative="1" as="geometry">
            <Array as="points">
              <mxPoint x="760" y="620" />
              <mxPoint x="680" y="620" />
              <mxPoint x="680" y="870" />
              <mxPoint x="40" y="870" />
              <mxPoint x="40" y="440" />
            </Array>
          </mxGeometry>
        </mxCell>
        <mxCell id="DMGwknJtA3tuaSFfa8lZ-167" style="edgeStyle=orthogonalEdgeStyle;rounded=0;orthogonalLoop=1;jettySize=auto;html=1;exitX=0.25;exitY=0;exitDx=0;exitDy=0;entryX=1;entryY=0.75;entryDx=0;entryDy=0;strokeColor=#990000;" parent="1" source="DMGwknJtA3tuaSFfa8lZ-43" target="DMGwknJtA3tuaSFfa8lZ-40" edge="1">
          <mxGeometry relative="1" as="geometry">
            <Array as="points">
              <mxPoint x="760" y="420" />
              <mxPoint x="670" y="420" />
              <mxPoint x="670" y="330" />
            </Array>
          </mxGeometry>
        </mxCell>
        <mxCell id="DMGwknJtA3tuaSFfa8lZ-168" style="edgeStyle=orthogonalEdgeStyle;rounded=0;orthogonalLoop=1;jettySize=auto;html=1;exitX=0.5;exitY=0;exitDx=0;exitDy=0;entryX=0.75;entryY=1;entryDx=0;entryDy=0;strokeColor=#990000;" parent="1" source="DMGwknJtA3tuaSFfa8lZ-43" target="DMGwknJtA3tuaSFfa8lZ-41" edge="1">
          <mxGeometry relative="1" as="geometry">
            <Array as="points">
              <mxPoint x="780" y="420" />
              <mxPoint x="791" y="420" />
            </Array>
          </mxGeometry>
        </mxCell>
        <mxCell id="DMGwknJtA3tuaSFfa8lZ-43" value="일월신교" style="whiteSpace=wrap;html=1;" parent="1" vertex="1">
          <mxGeometry x="740" y="560" width="80" height="40" as="geometry" />
        </mxCell>
        <mxCell id="DMGwknJtA3tuaSFfa8lZ-46" value="도방" style="rounded=1;whiteSpace=wrap;html=1;arcSize=50;" parent="1" vertex="1">
          <mxGeometry x="300" y="40" width="80" height="40" as="geometry" />
        </mxCell>
        <mxCell id="DMGwknJtA3tuaSFfa8lZ-172" style="edgeStyle=orthogonalEdgeStyle;rounded=0;orthogonalLoop=1;jettySize=auto;html=1;exitX=1;exitY=0.5;exitDx=0;exitDy=0;entryX=0.25;entryY=0;entryDx=0;entryDy=0;startArrow=classic;startFill=1;strokeColor=#7EA6E0;" parent="1" source="DMGwknJtA3tuaSFfa8lZ-49" target="DMGwknJtA3tuaSFfa8lZ-32" edge="1">
          <mxGeometry relative="1" as="geometry" />
        </mxCell>
        <mxCell id="DMGwknJtA3tuaSFfa8lZ-49" value="좌도방" style="whiteSpace=wrap;html=1;" parent="1" vertex="1">
          <mxGeometry x="300" y="100" width="80" height="40" as="geometry" />
        </mxCell>
        <mxCell id="DMGwknJtA3tuaSFfa8lZ-52" value="우도방" style="whiteSpace=wrap;html=1;" parent="1" vertex="1">
          <mxGeometry x="300" y="150" width="80" height="40" as="geometry" />
        </mxCell>
        <mxCell id="DMGwknJtA3tuaSFfa8lZ-148" style="edgeStyle=orthogonalEdgeStyle;rounded=0;orthogonalLoop=1;jettySize=auto;html=1;exitX=0.25;exitY=0;exitDx=0;exitDy=0;entryX=1;entryY=0;entryDx=0;entryDy=0;strokeColor=#999999;" parent="1" source="DMGwknJtA3tuaSFfa8lZ-56" target="DMGwknJtA3tuaSFfa8lZ-31" edge="1">
          <mxGeometry relative="1" as="geometry">
            <Array as="points">
              <mxPoint x="510" y="720" />
              <mxPoint x="510" y="420" />
              <mxPoint x="270" y="420" />
            </Array>
          </mxGeometry>
        </mxCell>
        <mxCell id="DMGwknJtA3tuaSFfa8lZ-150" style="edgeStyle=orthogonalEdgeStyle;rounded=0;orthogonalLoop=1;jettySize=auto;html=1;exitX=0.25;exitY=0;exitDx=0;exitDy=0;entryX=0;entryY=0.25;entryDx=0;entryDy=0;strokeColor=#999999;" parent="1" source="DMGwknJtA3tuaSFfa8lZ-56" target="DMGwknJtA3tuaSFfa8lZ-32" edge="1">
          <mxGeometry relative="1" as="geometry" />
        </mxCell>
        <mxCell id="DMGwknJtA3tuaSFfa8lZ-56" value="잔존 세력" style="whiteSpace=wrap;html=1;" parent="1" vertex="1">
          <mxGeometry x="491" y="720" width="80" height="40" as="geometry" />
        </mxCell>
        <mxCell id="DMGwknJtA3tuaSFfa8lZ-159" style="edgeStyle=orthogonalEdgeStyle;rounded=0;orthogonalLoop=1;jettySize=auto;html=1;exitX=0.5;exitY=1;exitDx=0;exitDy=0;entryX=0;entryY=0.75;entryDx=0;entryDy=0;strokeColor=#990000;startArrow=classic;startFill=1;" parent="1" source="DMGwknJtA3tuaSFfa8lZ-57" target="DMGwknJtA3tuaSFfa8lZ-32" edge="1">
          <mxGeometry relative="1" as="geometry" />
        </mxCell>
        <mxCell id="DMGwknJtA3tuaSFfa8lZ-57" value="살막" style="whiteSpace=wrap;html=1;" parent="1" vertex="1">
          <mxGeometry x="20" y="170" width="80" height="40" as="geometry" />
        </mxCell>
        <mxCell id="DMGwknJtA3tuaSFfa8lZ-100" style="edgeStyle=orthogonalEdgeStyle;rounded=0;orthogonalLoop=1;jettySize=auto;html=1;exitX=0.5;exitY=0;exitDx=0;exitDy=0;entryX=0;entryY=0.5;entryDx=0;entryDy=0;strokeColor=#990000;endArrow=classic;endFill=1;startArrow=classic;startFill=1;" parent="1" source="DMGwknJtA3tuaSFfa8lZ-31" target="DMGwknJtA3tuaSFfa8lZ-40" edge="1">
          <mxGeometry relative="1" as="geometry" />
        </mxCell>
        <mxCell id="DMGwknJtA3tuaSFfa8lZ-101" value="적대" style="text;html=1;align=center;verticalAlign=middle;resizable=0;points=[];autosize=1;strokeColor=none;fillColor=none;" parent="1" vertex="1">
          <mxGeometry x="300" y="330" width="50" height="30" as="geometry" />
        </mxCell>
        <mxCell id="DMGwknJtA3tuaSFfa8lZ-84" value="" style="whiteSpace=wrap;html=1;fillColor=none;rounded=1;" parent="1" vertex="1">
          <mxGeometry x="70" y="460" width="320" height="380" as="geometry" />
        </mxCell>
        <mxCell id="DMGwknJtA3tuaSFfa8lZ-132" style="edgeStyle=orthogonalEdgeStyle;rounded=0;orthogonalLoop=1;jettySize=auto;html=1;exitX=1;exitY=0.25;exitDx=0;exitDy=0;entryX=0;entryY=0.25;entryDx=0;entryDy=0;strokeColor=#EA6B66;" parent="1" source="DMGwknJtA3tuaSFfa8lZ-31" target="DMGwknJtA3tuaSFfa8lZ-42" edge="1">
          <mxGeometry relative="1" as="geometry" />
        </mxCell>
        <mxCell id="DMGwknJtA3tuaSFfa8lZ-144" style="edgeStyle=orthogonalEdgeStyle;rounded=0;orthogonalLoop=1;jettySize=auto;html=1;exitX=0;exitY=0.25;exitDx=0;exitDy=0;entryX=0;entryY=0.75;entryDx=0;entryDy=0;strokeColor=#EA6B66;" parent="1" source="DMGwknJtA3tuaSFfa8lZ-31" target="DMGwknJtA3tuaSFfa8lZ-43" edge="1">
          <mxGeometry relative="1" as="geometry">
            <Array as="points">
              <mxPoint x="50" y="450" />
              <mxPoint x="50" y="860" />
              <mxPoint x="670" y="860" />
              <mxPoint x="670" y="590" />
            </Array>
          </mxGeometry>
        </mxCell>
        <mxCell id="DMGwknJtA3tuaSFfa8lZ-31" value="정파" style="rounded=1;whiteSpace=wrap;html=1;arcSize=50;" parent="1" vertex="1">
          <mxGeometry x="190" y="440" width="80" height="40" as="geometry" />
        </mxCell>
        <mxCell id="DMGwknJtA3tuaSFfa8lZ-120" style="rounded=0;orthogonalLoop=1;jettySize=auto;html=1;exitX=0.5;exitY=1;exitDx=0;exitDy=0;entryX=0.5;entryY=0;entryDx=0;entryDy=0;startArrow=classic;startFill=1;strokeColor=#7EA6E0;" parent="1" source="DMGwknJtA3tuaSFfa8lZ-33" target="DMGwknJtA3tuaSFfa8lZ-34" edge="1">
          <mxGeometry relative="1" as="geometry" />
        </mxCell>
        <mxCell id="DMGwknJtA3tuaSFfa8lZ-122" style="edgeStyle=orthogonalEdgeStyle;rounded=0;orthogonalLoop=1;jettySize=auto;html=1;exitX=0.5;exitY=0;exitDx=0;exitDy=0;entryX=0;entryY=0.5;entryDx=0;entryDy=0;strokeColor=#7EA6E0;" parent="1" source="DMGwknJtA3tuaSFfa8lZ-33" target="DMGwknJtA3tuaSFfa8lZ-38" edge="1">
          <mxGeometry relative="1" as="geometry" />
        </mxCell>
        <mxCell id="DMGwknJtA3tuaSFfa8lZ-33" value="소림" style="whiteSpace=wrap;html=1;" parent="1" vertex="1">
          <mxGeometry x="190" y="540" width="80" height="40" as="geometry" />
        </mxCell>
        <mxCell id="DMGwknJtA3tuaSFfa8lZ-130" style="edgeStyle=orthogonalEdgeStyle;rounded=0;orthogonalLoop=1;jettySize=auto;html=1;exitX=1;exitY=0.5;exitDx=0;exitDy=0;entryX=0;entryY=0.5;entryDx=0;entryDy=0;strokeColor=#666666;startArrow=classic;startFill=1;" parent="1" source="DMGwknJtA3tuaSFfa8lZ-34" target="DMGwknJtA3tuaSFfa8lZ-42" edge="1">
          <mxGeometry relative="1" as="geometry" />
        </mxCell>
        <mxCell id="DMGwknJtA3tuaSFfa8lZ-34" value="개방" style="whiteSpace=wrap;html=1;" parent="1" vertex="1">
          <mxGeometry x="190" y="700" width="80" height="40" as="geometry" />
        </mxCell>
        <mxCell id="DMGwknJtA3tuaSFfa8lZ-119" style="rounded=0;orthogonalLoop=1;jettySize=auto;html=1;exitX=0.75;exitY=1;exitDx=0;exitDy=0;entryX=0.25;entryY=0;entryDx=0;entryDy=0;startArrow=classic;startFill=1;strokeColor=#7EA6E0;" parent="1" source="DMGwknJtA3tuaSFfa8lZ-35" target="DMGwknJtA3tuaSFfa8lZ-34" edge="1">
          <mxGeometry relative="1" as="geometry" />
        </mxCell>
        <mxCell id="DMGwknJtA3tuaSFfa8lZ-124" style="edgeStyle=orthogonalEdgeStyle;rounded=0;orthogonalLoop=1;jettySize=auto;html=1;exitX=1;exitY=0.5;exitDx=0;exitDy=0;entryX=0.25;entryY=0;entryDx=0;entryDy=0;fillColor=#f8cecc;strokeColor=#b85450;" parent="1" source="DMGwknJtA3tuaSFfa8lZ-35" target="DMGwknJtA3tuaSFfa8lZ-33" edge="1">
          <mxGeometry relative="1" as="geometry" />
        </mxCell>
        <mxCell id="DMGwknJtA3tuaSFfa8lZ-35" value="무당" style="whiteSpace=wrap;html=1;" parent="1" vertex="1">
          <mxGeometry x="90" y="480" width="80" height="40" as="geometry" />
        </mxCell>
        <mxCell id="DMGwknJtA3tuaSFfa8lZ-102" style="edgeStyle=orthogonalEdgeStyle;rounded=0;orthogonalLoop=1;jettySize=auto;html=1;exitX=0.5;exitY=0;exitDx=0;exitDy=0;entryX=0.5;entryY=1;entryDx=0;entryDy=0;strokeColor=#EA6B66;startArrow=classic;startFill=1;" parent="1" source="DMGwknJtA3tuaSFfa8lZ-36" target="DMGwknJtA3tuaSFfa8lZ-35" edge="1">
          <mxGeometry relative="1" as="geometry" />
        </mxCell>
        <mxCell id="DMGwknJtA3tuaSFfa8lZ-116" style="rounded=0;orthogonalLoop=1;jettySize=auto;html=1;exitX=1;exitY=0;exitDx=0;exitDy=0;entryX=0.25;entryY=1;entryDx=0;entryDy=0;startArrow=classic;startFill=1;strokeColor=#7EA6E0;" parent="1" source="DMGwknJtA3tuaSFfa8lZ-36" target="DMGwknJtA3tuaSFfa8lZ-34" edge="1">
          <mxGeometry relative="1" as="geometry" />
        </mxCell>
        <mxCell id="DMGwknJtA3tuaSFfa8lZ-36" value="화산" style="whiteSpace=wrap;html=1;" parent="1" vertex="1">
          <mxGeometry x="90" y="780" width="80" height="40" as="geometry" />
        </mxCell>
        <mxCell id="DMGwknJtA3tuaSFfa8lZ-103" style="edgeStyle=orthogonalEdgeStyle;rounded=0;orthogonalLoop=1;jettySize=auto;html=1;exitX=0;exitY=0.5;exitDx=0;exitDy=0;strokeColor=#EA6B66;startArrow=classic;startFill=1;" parent="1" source="DMGwknJtA3tuaSFfa8lZ-37" target="DMGwknJtA3tuaSFfa8lZ-36" edge="1">
          <mxGeometry relative="1" as="geometry" />
        </mxCell>
        <mxCell id="DMGwknJtA3tuaSFfa8lZ-117" style="rounded=0;orthogonalLoop=1;jettySize=auto;html=1;exitX=0;exitY=0;exitDx=0;exitDy=0;entryX=0.75;entryY=1;entryDx=0;entryDy=0;startArrow=classic;startFill=1;strokeColor=#7EA6E0;" parent="1" source="DMGwknJtA3tuaSFfa8lZ-37" target="DMGwknJtA3tuaSFfa8lZ-34" edge="1">
          <mxGeometry relative="1" as="geometry" />
        </mxCell>
        <mxCell id="DMGwknJtA3tuaSFfa8lZ-37" value="종남" style="whiteSpace=wrap;html=1;" parent="1" vertex="1">
          <mxGeometry x="285" y="780" width="80" height="40" as="geometry" />
        </mxCell>
        <mxCell id="DMGwknJtA3tuaSFfa8lZ-118" style="rounded=0;orthogonalLoop=1;jettySize=auto;html=1;exitX=0.25;exitY=1;exitDx=0;exitDy=0;entryX=0.75;entryY=0;entryDx=0;entryDy=0;startArrow=classic;startFill=1;strokeColor=#7EA6E0;" parent="1" source="DMGwknJtA3tuaSFfa8lZ-38" target="DMGwknJtA3tuaSFfa8lZ-34" edge="1">
          <mxGeometry relative="1" as="geometry" />
        </mxCell>
        <mxCell id="DMGwknJtA3tuaSFfa8lZ-128" style="edgeStyle=orthogonalEdgeStyle;rounded=0;orthogonalLoop=1;jettySize=auto;html=1;exitX=1;exitY=0.5;exitDx=0;exitDy=0;entryX=0.5;entryY=1;entryDx=0;entryDy=0;strokeColor=#990000;startArrow=classic;startFill=1;" parent="1" source="DMGwknJtA3tuaSFfa8lZ-38" target="DMGwknJtA3tuaSFfa8lZ-40" edge="1">
          <mxGeometry relative="1" as="geometry" />
        </mxCell>
        <mxCell id="DMGwknJtA3tuaSFfa8lZ-38" value="곤륜" style="whiteSpace=wrap;html=1;" parent="1" vertex="1">
          <mxGeometry x="290" y="480" width="80" height="40" as="geometry" />
        </mxCell>
        <mxCell id="DMGwknJtA3tuaSFfa8lZ-105" value="라이벌" style="text;html=1;align=center;verticalAlign=middle;resizable=0;points=[];autosize=1;strokeColor=none;fillColor=none;" parent="1" vertex="1">
          <mxGeometry x="200" y="800" width="60" height="30" as="geometry" />
        </mxCell>
        <mxCell id="DMGwknJtA3tuaSFfa8lZ-106" value="라이벌" style="text;html=1;align=center;verticalAlign=middle;resizable=0;points=[];autosize=1;strokeColor=none;fillColor=none;" parent="1" vertex="1">
          <mxGeometry x="70" y="635" width="60" height="30" as="geometry" />
        </mxCell>
        <mxCell id="DMGwknJtA3tuaSFfa8lZ-121" value="소식통" style="text;html=1;align=center;verticalAlign=middle;resizable=0;points=[];autosize=1;strokeColor=none;fillColor=none;" parent="1" vertex="1">
          <mxGeometry x="200" y="740" width="60" height="30" as="geometry" />
        </mxCell>
        <mxCell id="DMGwknJtA3tuaSFfa8lZ-123" value="든든한&lt;br&gt;방어선" style="text;html=1;align=center;verticalAlign=middle;resizable=0;points=[];autosize=1;strokeColor=none;fillColor=none;" parent="1" vertex="1">
          <mxGeometry x="225" y="500" width="60" height="40" as="geometry" />
        </mxCell>
        <mxCell id="DMGwknJtA3tuaSFfa8lZ-125" value="질투" style="text;html=1;align=center;verticalAlign=middle;resizable=0;points=[];autosize=1;strokeColor=none;fillColor=none;" parent="1" vertex="1">
          <mxGeometry x="170" y="500" width="50" height="30" as="geometry" />
        </mxCell>
        <mxCell id="DMGwknJtA3tuaSFfa8lZ-127" value="적대" style="text;html=1;align=center;verticalAlign=middle;resizable=0;points=[];autosize=1;strokeColor=none;fillColor=none;" parent="1" vertex="1">
          <mxGeometry x="440" y="390" width="50" height="30" as="geometry" />
        </mxCell>
        <mxCell id="DMGwknJtA3tuaSFfa8lZ-129" value="원수" style="text;html=1;align=center;verticalAlign=middle;resizable=0;points=[];autosize=1;strokeColor=none;fillColor=none;" parent="1" vertex="1">
          <mxGeometry x="460" y="470" width="50" height="30" as="geometry" />
        </mxCell>
        <mxCell id="DMGwknJtA3tuaSFfa8lZ-131" value="정보 교류" style="text;html=1;align=center;verticalAlign=middle;resizable=0;points=[];autosize=1;strokeColor=none;fillColor=none;" parent="1" vertex="1">
          <mxGeometry x="420" y="635" width="70" height="30" as="geometry" />
        </mxCell>
        <mxCell id="DMGwknJtA3tuaSFfa8lZ-137" value="경계" style="text;html=1;align=center;verticalAlign=middle;resizable=0;points=[];autosize=1;strokeColor=none;fillColor=none;" parent="1" vertex="1">
          <mxGeometry x="470" y="540" width="50" height="30" as="geometry" />
        </mxCell>
        <mxCell id="DMGwknJtA3tuaSFfa8lZ-138" value="경계" style="text;html=1;align=center;verticalAlign=middle;resizable=0;points=[];autosize=1;strokeColor=none;fillColor=none;" parent="1" vertex="1">
          <mxGeometry x="590" y="520" width="50" height="30" as="geometry" />
        </mxCell>
        <mxCell id="DMGwknJtA3tuaSFfa8lZ-140" value="경계" style="text;html=1;align=center;verticalAlign=middle;resizable=0;points=[];autosize=1;strokeColor=none;fillColor=none;" parent="1" vertex="1">
          <mxGeometry x="690" y="540" width="50" height="30" as="geometry" />
        </mxCell>
        <mxCell id="DMGwknJtA3tuaSFfa8lZ-145" value="경계" style="text;html=1;align=center;verticalAlign=middle;resizable=0;points=[];autosize=1;strokeColor=none;fillColor=none;" parent="1" vertex="1">
          <mxGeometry x="620" y="830" width="50" height="30" as="geometry" />
        </mxCell>
        <mxCell id="DMGwknJtA3tuaSFfa8lZ-147" value="우호적" style="text;html=1;align=center;verticalAlign=middle;resizable=0;points=[];autosize=1;strokeColor=none;fillColor=none;" parent="1" vertex="1">
          <mxGeometry x="620" y="870" width="60" height="30" as="geometry" />
        </mxCell>
        <mxCell id="DMGwknJtA3tuaSFfa8lZ-151" value="은둔" style="text;html=1;align=center;verticalAlign=middle;resizable=0;points=[];autosize=1;strokeColor=none;fillColor=none;" parent="1" vertex="1">
          <mxGeometry x="506" y="670" width="50" height="30" as="geometry" />
        </mxCell>
        <mxCell id="DMGwknJtA3tuaSFfa8lZ-153" value="도움" style="text;html=1;align=center;verticalAlign=middle;resizable=0;points=[];autosize=1;strokeColor=none;fillColor=none;" parent="1" vertex="1">
          <mxGeometry x="571" y="710" width="50" height="30" as="geometry" />
        </mxCell>
        <mxCell id="DMGwknJtA3tuaSFfa8lZ-154" style="edgeStyle=orthogonalEdgeStyle;rounded=0;orthogonalLoop=1;jettySize=auto;html=1;exitX=0.25;exitY=1;exitDx=0;exitDy=0;entryX=0.25;entryY=0;entryDx=0;entryDy=0;startArrow=classic;startFill=1;strokeColor=#990000;" parent="1" source="DMGwknJtA3tuaSFfa8lZ-57" target="DMGwknJtA3tuaSFfa8lZ-31" edge="1">
          <mxGeometry relative="1" as="geometry" />
        </mxCell>
        <mxCell id="DMGwknJtA3tuaSFfa8lZ-156" value="적대" style="text;html=1;align=center;verticalAlign=middle;resizable=0;points=[];autosize=1;strokeColor=none;fillColor=none;" parent="1" vertex="1">
          <mxGeometry x="75" y="300" width="50" height="30" as="geometry" />
        </mxCell>
        <mxCell id="DMGwknJtA3tuaSFfa8lZ-158" value="적대" style="text;html=1;align=center;verticalAlign=middle;resizable=0;points=[];autosize=1;strokeColor=none;fillColor=none;" parent="1" vertex="1">
          <mxGeometry x="50" y="245" width="50" height="30" as="geometry" />
        </mxCell>
        <mxCell id="DMGwknJtA3tuaSFfa8lZ-164" value="기술적&lt;br&gt;교류" style="text;html=1;align=center;verticalAlign=middle;resizable=0;points=[];autosize=1;strokeColor=none;fillColor=none;" parent="1" vertex="1">
          <mxGeometry x="190" y="200" width="60" height="40" as="geometry" />
        </mxCell>
        <mxCell id="DMGwknJtA3tuaSFfa8lZ-166" value="기술적&lt;br&gt;교류" style="text;html=1;align=center;verticalAlign=middle;resizable=0;points=[];autosize=1;strokeColor=none;fillColor=none;" parent="1" vertex="1">
          <mxGeometry x="585" y="80" width="60" height="40" as="geometry" />
        </mxCell>
        <mxCell id="DMGwknJtA3tuaSFfa8lZ-169" value="적대" style="text;html=1;align=center;verticalAlign=middle;resizable=0;points=[];autosize=1;strokeColor=none;fillColor=none;" parent="1" vertex="1">
          <mxGeometry x="710" y="420" width="50" height="30" as="geometry" />
        </mxCell>
        <mxCell id="DMGwknJtA3tuaSFfa8lZ-170" value="적대" style="text;html=1;align=center;verticalAlign=middle;resizable=0;points=[];autosize=1;strokeColor=none;fillColor=none;" parent="1" vertex="1">
          <mxGeometry x="780" y="420" width="50" height="30" as="geometry" />
        </mxCell>
        <mxCell id="DMGwknJtA3tuaSFfa8lZ-171" style="edgeStyle=orthogonalEdgeStyle;rounded=0;orthogonalLoop=1;jettySize=auto;html=1;exitX=0.5;exitY=1;exitDx=0;exitDy=0;entryX=0.645;entryY=0.027;entryDx=0;entryDy=0;entryPerimeter=0;strokeColor=#7EA6E0;startArrow=classic;startFill=1;" parent="1" source="DMGwknJtA3tuaSFfa8lZ-52" target="DMGwknJtA3tuaSFfa8lZ-31" edge="1">
          <mxGeometry relative="1" as="geometry">
            <Array as="points">
              <mxPoint x="340" y="220" />
              <mxPoint x="242" y="220" />
            </Array>
          </mxGeometry>
        </mxCell>
      </root>
    </mxGraphModel>
  </diagram>
</mxfile>
